<svg width="25" height="24" viewBox="0 0 25 24" fill="none" xmlns="http://www.w3.org/2000/svg">
<path d="M19.27 4H18.27V2H16.27V4H8.26999V2H6.26999V4H5.26999C4.16999 4 3.26999 4.9 3.26999 6V20C3.26999 21.1 4.16999 22 5.26999 22H19.27C20.37 22 21.27 21.1 21.27 20V6C21.27 4.9 20.37 4 19.27 4ZM19.27 20H5.26999V10H19.27V20ZM5.26999 8V6H19.27V8H5.26999ZM8.49999 17.41L9.55999 18.47L12 16.03L14.44 18.47L15.5 17.41L13.06 14.97L15.5 12.53L14.44 11.47L12 13.91L9.55999 11.47L8.49999 12.53L10.94 14.97L8.49999 17.41Z" fill="#793C8A"/>
</svg>
