<svg width="25" height="24" viewBox="0 0 25 24" fill="none" xmlns="http://www.w3.org/2000/svg">
<path d="M12.27 21.75C13.37 21.75 14.27 20.85 14.27 19.75H10.27C10.27 20.85 11.17 21.75 12.27 21.75ZM18.27 15.75V10.75C18.27 7.68 16.64 5.11 13.77 4.43V3.75C13.77 2.92 13.1 2.25 12.27 2.25C11.44 2.25 10.77 2.92 10.77 3.75V4.43C7.90999 5.11 6.26999 7.67 6.26999 10.75V15.75L4.26999 17.75V18.75H20.27V17.75L18.27 15.75ZM16.27 16.75H8.26999V10.75C8.26999 8.27 9.77999 6.25 12.27 6.25C14.76 6.25 16.27 8.27 16.27 10.75V16.75ZM7.84999 3.83L6.41999 2.4C4.01999 4.23 2.43999 7.05 2.29999 10.25H4.29999C4.44999 7.6 5.80999 5.28 7.84999 3.83ZM20.24 10.25H22.24C22.09 7.05 20.51 4.23 18.12 2.4L16.7 3.83C18.72 5.28 20.09 7.6 20.24 10.25Z" fill="#793C8A"/>
</svg>
