<svg xmlns="http://www.w3.org/2000/svg" width="32" height="32" viewBox="0 0 32 32">
    <g fill="none" fill-rule="evenodd">
        <g>
            <g>
                <g>
                    <g>
                        <g transform="translate(-132 -1649) translate(100 1548) translate(0 69) translate(24 24) translate(8 8)">
                            <rect width="32" height="32" fill="#EBEBFF" rx="3.2"/>
                            <path fill="#FFF" d="M7.5 10.5H24.5V24.5H7.5z"/>
                            <path fill="#3A3A4C" d="M24 9.6c.884 0 1.6.716 1.6 1.6V24c0 .884-.716 1.6-1.6 1.6H8c-.884 0-1.6-.716-1.6-1.6V11.2c0-.884.716-1.6 1.6-1.6h16zm-.8 1.6H8.8c-.442 0-.8.358-.8.8v11.2c0 .442.358.8.8.8h14.4c.442 0 .8-.358.8-.8V12c0-.442-.358-.8-.8-.8z"/>
                            <ellipse cx="12.8" cy="15.8" stroke="#8F286C" stroke-width="1.6" rx="2.4" ry="2.2"/>
                            <path fill="#3A3A4C" d="M11.2 6.4c.884 0 1.6.716 1.6 1.6v1.6H9.6V8c0-.884.716-1.6 1.6-1.6zM20.8 6.4c.884 0 1.6.716 1.6 1.6v1.6h-3.2V8c0-.884.716-1.6 1.6-1.6z"/>
                        </g>
                    </g>
                </g>
            </g>
        </g>
    </g>
</svg>
