<svg xmlns="http://www.w3.org/2000/svg" width="9" height="12" viewBox="0 0 9 12">
    <g fill="none" fill-rule="evenodd">
        <g fill="#3A3A4C" fill-rule="nonzero">
            <g>
                <g>
                    <g>
                        <g>
                            <path d="M2 40c1 0 .5 2 2.5 2S6 40 7 40h1c.552 0 1 .448 1 1v10c0 .552-.448 1-1 1H1c-.552 0-1-.448-1-1V41c0-.552.448-1 1-1h1zm5.614 1h-.067c-.194 0-.37.112-.453.288l-.075.16C6.525 42.434 5.772 43 4.5 43c-1.198 0-1.935-.5-2.43-1.383l-.109-.21-.056-.12c-.082-.175-.259-.287-.453-.287h-.067c-.213 0-.385.172-.385.385V50.5c0 .276.224.5.5.5h6c.276 0 .5-.224.5-.5v-9.114c0-.213-.173-.386-.386-.386z" transform="translate(-1024 -2108) translate(0 1108) translate(100 640) translate(0 304) translate(924 16)"/>
                        </g>
                    </g>
                </g>
            </g>
        </g>
    </g>
</svg>
