<svg xmlns="http://www.w3.org/2000/svg" width="16" height="16" viewBox="0 0 16 16">
    <g fill="none" fill-rule="evenodd">
        <g fill="#000048">
            <g>
                <g>
                    <g>
                        <g>
                            <path d="M8 0c4.418 0 8 3.582 8 8s-3.582 8-8 8-8-3.582-8-8 3.582-8 8-8zm0 1.333C4.318 1.333 1.333 4.318 1.333 8S4.318 14.667 8 14.667 14.667 11.682 14.667 8 11.682 1.333 8 1.333z" transform="translate(-823 -1874) translate(0 1108) translate(100 640) translate(0 88) translate(723 38)"/>
                            <path d="M7.333 3.333H8.666V8.666H7.333z" transform="translate(-823 -1874) translate(0 1108) translate(100 640) translate(0 88) translate(723 38)"/>
                            <path d="M7.333 8H11.333V9.333H7.333z" transform="translate(-823 -1874) translate(0 1108) translate(100 640) translate(0 88) translate(723 38)"/>
                        </g>
                    </g>
                </g>
            </g>
        </g>
    </g>
</svg>
