<svg xmlns="http://www.w3.org/2000/svg" width="18" height="24" viewBox="0 0 18 24">
    <g fill="none" fill-rule="evenodd">
        <g fill="#83338F">
            <g>
                <g>
                    <g>
                        <g>
                            <g>
                                <path d="M9 0c4.97 0 9 4.03 9 9 0 7.5-9 15-9 15l-.024-.02C8.471 23.552 0 16.276 0 9c0-4.97 4.03-9 9-9zm0 2.25C5.272 2.25 2.25 5.272 2.25 9S5.272 15.75 9 15.75s6.75-3.022 6.75-6.75S12.728 2.25 9 2.25z" transform="translate(-383 -1452) translate(0 1108) translate(0 192) translate(360 48) translate(0 84) translate(23 20)"/>
                            </g>
                        </g>
                    </g>
                </g>
            </g>
        </g>
    </g>
</svg>
