/* XPM */
static char * image_name[] = {
"32 27 12 1",
" 	c #C71BBEFBC71B",
".	c #BEFBC30BBEFB",
"X	c #B6DAAEBAB6DA",
"o	c #CF3CC71BCF3C",
"O	c #71C66DB68E38",
"+	c #861779E78E38",
"@	c #30C228A24924",
"#	c #5965596569A6",
"$	c #B6DA92486185",
"%	c #CF3CB6DAB6DA",
"&	c #BEFB65955144",
"*	c #9E7975D65965",
" . . . . . . . . . . . . . . . .",
" . . . . . . . .XXX.. . . . . . ",
". . . . . . . . XX ooo. . . . . ",
" . . XXX . . . . XXOOooX . . . .",
" . ..+oooX. . . ..XX@#Xo X. . . ",
" . .  XooXXX . . . ..@#@ +X.. . ",
". .. . ooX+X.. . . . OO@@+OX . .",
" .XXooooXO+XX . . . XO@@@#OXX.. ",
" . XOX OOO+OX. . . oo$@@@@+O+X  ",
" .  X@@O+ oO+.. .oo%&%#XOO#ooX..",
". . .XO+OO+OXOX.%oo&$*++XO#O#OXX",
". . . XX+XOOX.+oo%$$#X+XXXXO+OXX",
" . .  . XXX@OOOo$$%*+OXX. XXXXXX",
" . . . .  .XO+o$$$#++XX.   XXX. ",
". . . . . . .o%$*@++XXX . . X . ",
". . . . .  oo%&*@*##X. . . .o. .",
" . . . . .oo$$*##@#OOXX . . . . ",
". . . . ooo$&$#++##OO#X. . . . .",
" . . . .oo$$$#X+XXO#@OOXXX . . .",
" .o.  ooo$$#OO*X.XXXOXX@@#+.. . ",
". . . oo&&#**XXX. .XXX@O+XOXX. .",
". .oooo&**#+OXXX .  XX#++XOXX . ",
" . .oo$$##X+XXX  . . X#XooOX+X. ",
". .o.$###O*XX. . . .  +OOO+OXX .",
" . .oXX**XXX.. . . . ..XXOX+XX. ",
". . ..XX+XX.. . . . . .XXX+XX. .",
" . . ..XXXX . . . . . . X.X... ."};
