<svg width="5" height="16" viewBox="0 0 5 16" xmlns="http://www.w3.org/2000/svg">
    <path fill="000000" d="M2.85712 4C3.95712 4 4.85712 3.1 4.85712 2C4.85712 0.9 3.95712 0 2.85712 0C1.75712 0 0.857117 0.9 0.857117 2C0.857117 3.1 1.75712 4 2.85712 4ZM2.85712 6C1.75712 6 0.857117 6.9 0.857117 8C0.857117 9.1 1.75712 10 2.85712 10C3.95712 10 4.85712 9.1 4.85712 8C4.85712 6.9 3.95712 6 2.85712 6ZM2.85712 12C1.75712 12 0.857117 12.9 0.857117 14C0.857117 15.1 1.75712 16 2.85712 16C3.95712 16 4.85712 15.1 4.85712 14C4.85712 12.9 3.95712 12 2.85712 12Z"/>
</svg>
